<svg id="Laag_2" data-name="Laag 2" xmlns="http://www.w3.org/2000/svg" viewBox="0 0 365.51 372.24"><path d="M337.24,227.58c-2.92-.37-5.84-.71-8.76-1.11-17.14-2.35-34.25-2.89-51.43,0-18.75,3.16-36.78,8.4-53.79,17a161.43,161.43,0,0,0-38.18,26.17,190.68,190.68,0,0,0-36,45.4C140,331.05,134,348.07,129.64,365.83a157.47,157.47,0,0,0-4.3,39.57A196.05,196.05,0,0,0,131,448.07a187.59,187.59,0,0,0,11.25,33.52c6.1,13.76,14.36,26.2,23.89,37.87a166.87,166.87,0,0,0,42.66,37.23c7.74,4.71,16.49,7.93,25,11.16a168.16,168.16,0,0,0,46.85,10.36,33.76,33.76,0,0,1,5.35.82c-10.76,1.49-21.26-.74-32.05-2.36,3.59,2.08,20.08,5.3,28.27,5.4,9.63.13,19.27.21,28.9,0s19.09-2.33,28.55-4.26,18.25-5.52,27.61-7.23l.4,1a13.59,13.59,0,0,1-1.82,1.35c-11.72,6-24.15,9.77-37.05,12.26a171.51,171.51,0,0,1-34.51,2.9c-16.43-.19-32.38-3.21-48.07-8-23.25-7.1-44.21-18.25-62.42-34.45s-32.46-35.21-43.73-56.56a159.1,159.1,0,0,1-14.59-41.81,188.15,188.15,0,0,1-4.23-45.82c1-28,6.74-54.91,19.52-80.06A174.65,174.65,0,0,1,163.27,287a204.7,204.7,0,0,1,27.89-27.09,173.17,173.17,0,0,1,53.91-29.18c16.86-5.64,34.16-9.62,52.1-8.94,8.86.34,17.7,1.57,26.52,2.62,4.57.55,9.08,1.59,13.62,2.41Z" transform="translate(-111.12 -215.88)"/><path d="M358.81,387.57c10.17-3.75,19.62-7.9,26.46-16.3a15.62,15.62,0,0,0,1.51-2.29c2.1-3.8.71-6.76-3.56-7.51-8.41-1.49-16.6-.07-24.63,2.29a138.58,138.58,0,0,0-14.24,5.31c-2.1.87-3.21.39-4.23-1.49-2.06-3.83-1.67-6.43,1.87-8.19,10.78-5.34,22-9,34.26-8.39,5.69.3,11.16,1.42,15.65,5.54,5.49,5,6.15,11,3.79,17.54-2,5.56-6,9.52-10.84,12.66-1.59,1-3.22,2-5.53,3.4a27.69,27.69,0,0,0,2.9.7c12.3,1.39,18.74,8.65,18.78,21,0,10.4-5.12,17.83-13.24,23.53a43.13,43.13,0,0,1-21.56,7.83,12.79,12.79,0,0,1-9-2.28,3.39,3.39,0,0,0-2.33-.11,13,13,0,0,0-2,.92c-2.52,1-3.5.64-3.84-2a122,122,0,0,1-1.38-14.36q-.27-20.47,0-40.94a94.48,94.48,0,0,1,1.5-13.59c.43-2.67,5.67-5.92,8.22-5.19a3.31,3.31,0,0,1,1.52,2.62c0,5.41-.2,10.81-.3,16.22C358.55,385.4,358.71,386.35,358.81,387.57Zm6.63,43.26c-.38-.08-.07,0,.25.05a5.71,5.71,0,0,0,1.49-.05c10.44-2.44,19.25-7.46,24.74-17,4.3-7.43,2.28-12.24-5.95-14.89a35.73,35.73,0,0,0-18-1.37c-3.15.6-6.33,1-10,1.63-.38,9.41-.76,19.16-1.18,29.52,2.63-1.75,4.12-4.72,6.81-3C364.72,426.46,364.74,428.67,365.44,430.83Z" transform="translate(-111.12 -215.88)"/><path d="M269.55,423.07c.64-16.07,1.33-33.1,2-50.13a3.52,3.52,0,0,1,2.81-3.62,39.28,39.28,0,0,0,4.22-1.52c1.78-.74,2.78-.14,2.92,1.71.12,1.65.05,3.32,0,5q-.19,24.45-.43,48.91c0,2.16.76,3,2.92,2.92,11.75-.37,21.34-5.29,29.07-13.93,5-5.59,8.85-11.88,10.19-19.41a34.07,34.07,0,0,0-.48-15.33c-2.26-8-8.3-11.53-15.95-13.26-10.51-2.37-20.5-.07-30.43,3-4.69,1.45-9.34,3-14,4.49-3.41,1.08-4.29-.19-4.61-3.7-.54-6,3.61-7.7,7.75-9,11.45-3.63,23.28-5.44,35.21-3.59,13.62,2.11,24.67,8.67,30.56,21.73a34.59,34.59,0,0,1,1,27.23c-5.89,15.42-16.07,26.69-32.23,31.67a53.77,53.77,0,0,1-22.45,2,25.55,25.55,0,0,1-4.83-1.23,4.33,4.33,0,0,1-3.28-4.69C269.62,429.53,269.55,426.78,269.55,423.07Z" transform="translate(-111.12 -215.88)"/><path d="M220.8,441.38c-13.86.69-32.21-10.69-36.7-24.59-5.81-18-.11-38.67,13.9-50.64a46.22,46.22,0,0,1,28.87-11.53c7.86-.3,15.43,1.12,21.14,7.47,4.23,4.7,4.91,10.52,1,15.39-2.14,2.64-5.16,4.6-7.94,6.64a4.33,4.33,0,0,1-3.31.53c-1.18-.32-2.17-1.34-3.24-2,.65-.88,1.3-1.77,2-2.64,1.34-1.76,3-3.35,4-5.3,1.68-3.55.71-5.75-2.84-7.53a16.52,16.52,0,0,0-10.2-1.63c-12.67,2.07-23.43,7.51-29.61,19.26S190.18,408.6,196,421c2.67,5.67,7.62,8,13.54,8.93,15.95,2.46,28.36-3.9,38.72-15.43a3.9,3.9,0,0,0,.33-.38c1.2-1.64,2.93-3.1,4.73-2.11.75.4.6,3.19.25,4.75a30.93,30.93,0,0,1-14.11,20.05C233.76,440.31,227.41,441.41,220.8,441.38Z" transform="translate(-111.12 -215.88)"/><path d="M427.51,279.51c.9.92,1.42,1.74,2.46,2.79,24.37,33.22,40.31,69.27,38.84,111.37a15.13,15.13,0,0,1-.58,2.7h-.73a18,18,0,0,1-.56-2.68,218.84,218.84,0,0,0-9.1-50.67,180.57,180.57,0,0,0-38.76-67.66c-10.71-11.94-22.6-22.57-36.5-30.74a123.55,123.55,0,0,0-29.06-12.41c-2.29-.64-4.55-1.37-6.82-2.07l.14-1a28.09,28.09,0,0,1,5.65,1.2c4.64,1.55,8.36,2.68,13,4.36a.73.73,0,0,0,.87-.28c-61.74-29.17-120.2-20-176.42,15.56l-.41-.54a13.66,13.66,0,0,1,2.13-2.28c4.84-3.24,9.56-6.68,14.64-9.48a195.24,195.24,0,0,1,20.56-10.17c10.09-4.13,20.7-6.59,31.43-8.66,16.49-3.17,33.13-3.41,49.72-2.55a150.31,150.31,0,0,1,55.52,14.09c15.13,7,29.27,15.57,41.78,26.54,7.16,6.28,13.51,13.49,20.2,20.31A18.22,18.22,0,0,1,427.51,279.51Z" transform="translate(-111.12 -215.88)"/><path d="M147.64,506.33c-1.47-1.7-3-3.35-4.41-5.11-13-16.33-20.49-35.29-26-55.14a176.79,176.79,0,0,1-5.62-60.55,212.78,212.78,0,0,1,10.12-51.73A149.15,149.15,0,0,1,137.08,302a171.72,171.72,0,0,1,22.13-28.84,28.34,28.34,0,0,1,2.21-1.87l.54.4a25.63,25.63,0,0,1-1.43,2.23c-8.28,10.55-16.14,21.42-22.48,33.24-10.3,19.19-17.51,39.49-20.65,61.13-2.31,15.89-2.21,31.8-.81,47.76,2.14,24.33,9.15,47.27,20,69.05,3,6,6.82,11.6,10.25,17.39.61,1,1.15,2.1,1.73,3.16Z" transform="translate(-111.12 -215.88)"/><path d="M466.72,400.27c.2,2.08.57,4.17.58,6.26a122.17,122.17,0,0,1-4.14,33.81,312.87,312.87,0,0,1-11,33.37c-5.45,13.51-13.09,25.92-21.61,37.81a147.16,147.16,0,0,1-18.93,21.77A184.29,184.29,0,0,1,384,554.47a158.45,158.45,0,0,1-38.2,18.17c-9.81,3-20,4.74-30.08,6.93-2.7.58-5.5.76-8.25,1.12l-.19-.73a4.38,4.38,0,0,1,1.29-.66c22.4-3,43-11.27,62.77-21.77a179.55,179.55,0,0,0,43.08-32.44c7.32-7.34,13.06-15.92,18.92-24.38,12-17.35,19.86-36.59,25.31-56.9,3.56-13.22,5.33-26.7,6.37-40.3a24.45,24.45,0,0,1,.7-3.25Z" transform="translate(-111.12 -215.88)"/><path d="M476.33,422.26c-4.47,53.12-29,95.57-69.68,129.16-12.79,10.56-30.29,19.75-34.54,19.16,2.92-1.62,5.51-3,8.07-4.47a182.11,182.11,0,0,0,47.32-37.92c11-12.37,21.65-25.14,28.92-40.17,3.64-7.54,6.5-15.48,9.38-23.35a152.6,152.6,0,0,0,7.8-34c.36-3,1.18-5.88,1.79-8.82Z" transform="translate(-111.12 -215.88)"/><path d="M453.65,315.49c14.9,25.31,22.77,52.59,23,82-2-14.08-3.53-28.34-8.15-41.9S458.62,328.85,453.65,315.49Z" transform="translate(-111.12 -215.88)"/><circle cx="69.47" cy="37.94" r="2.27"/><circle cx="38.17" cy="258.73" r="3.69"/><circle cx="43.89" cy="309.52" r="1.99"/><circle cx="53.89" cy="318.02" r="1.99"/><circle cx="254.44" cy="362.05" r="1.34"/><circle cx="316.84" cy="82.11" r="1.92"/><circle cx="338.9" cy="90.01" r="1.32"/></svg>